<svg id="visual" viewBox="0 0 960 540" width="960" height="540" xmlns="http://www.w3.org/2000/svg" xmlns:xlink="http://www.w3.org/1999/xlink" version="1.1"><g transform="translate(479.00699846929695 265.04155795445365)"><path d="M104 -128.6C131.2 -101 147.3 -64.9 153 -27.7C158.6 9.4 153.8 47.7 138.1 84.2C122.4 120.8 95.8 155.5 60 171.4C24.2 187.3 -20.9 184.3 -59.5 168.2C-98 152.1 -130 122.8 -144.1 88.1C-158.2 53.5 -154.4 13.5 -143.7 -21.5C-133 -56.5 -115.3 -86.4 -90.2 -114.3C-65.1 -142.2 -32.5 -168.1 2.9 -171.6C38.4 -175 76.7 -156.1 104 -128.6" fill="#FF0066"></path></g></svg>